<svg xmlns="http://www.w3.org/2000/svg" viewBox="0 0 512 512">
  <path fill="#222" d="M0 0h512v512H0Z"/>
  <path fill="#FC1" d="m203 84 1 118 10-8 8-5 1-1c20-11 44-13 66-8 12 3 21 8 30 15l2 2c18 14 26 36 30 57l1 4c5 24 6 51 2 75l-1 4c-3 16-8 32-16 47l-2 3a88 88 0 0 1-55 40l-18 1h-6c-20 0-38-4-54-18l-1-3h-2v8l-1 8h-41V90l46-6Z"/>
  <path fill="#222" d="M282 224c14 10 20 28 23 45a199 199 0 0 1 1 39c0 15 0 32-6 46l-1 2-10 17-2 2c-5 6-11 9-18 12l-3 1-14 1h-3c-15 0-27-6-38-16l-2-2c-5-5-7-8-7-15v-7a627 627 0 0 1 0-52 1609 1609 0 0 1 0-36v-3c0-8 3-12 9-18l2-2c18-20 45-29 69-14Z"/>
</svg>
